# Wavefront OBJ exported by MilkShape 3D

v 1.500000 -0.500000 0.500000
v 2.500000 -0.500000 0.500000
v 1.500000 0.500000 0.500000
v 2.500000 0.500000 0.500000
v 1.500000 0.500000 -0.500000
v 2.500000 0.500000 -0.500000
v 1.500000 -0.500000 -0.500000
v 2.500000 -0.500000 -0.500000
# 8 vertices

vt 0.000000 0.000000
vt 1.000000 0.000000
vt 0.000000 1.000000
vt 1.000000 1.000000
vt 0.000000 2.000000
vt 1.000000 2.000000
vt 0.000000 3.000000
vt 1.000000 3.000000
vt 0.000000 4.000000
vt 1.000000 4.000000
vt 2.000000 0.000000
vt 2.000000 1.000000
vt -1.000000 0.000000
vt -1.000000 1.000000
# 14 texture coordinates

vn -0.666667 -0.666667 0.333333
vn 0.408248 -0.408248 0.816497
vn -0.408248 0.408248 0.816497
vn 0.666667 0.666667 0.333333
vn -0.666667 0.666667 -0.333333
vn 0.408248 0.408248 -0.816497
vn -0.408248 -0.408248 -0.816497
vn 0.666667 -0.666667 -0.333333
# 8 normals

g default
# 0 triangles in group

g pCube1
s 1
f 1/1/1 2/2/2 3/3/3
f 2/2/2 4/4/4 3/3/3
f 3/3/3 4/4/4 5/5/5
f 4/4/4 6/6/6 5/5/5
f 5/5/5 6/6/6 7/7/7
f 6/6/6 8/8/8 7/7/7
f 7/7/7 8/8/8 1/9/1
f 8/8/8 2/10/2 1/9/1
f 2/2/2 8/11/8 4/4/4
f 8/11/8 6/12/6 4/4/4
f 7/13/7 1/1/1 5/14/5
f 1/1/1 3/3/3 5/14/5
# 12 triangles in group

# 12 triangles total

